<svg xmlns="http://www.w3.org/2000/svg" xmlns:xlink="http://www.w3.org/1999/xlink" version="1.1" id="Capa_1" x="0px" y="0px" width="100px" height="100px" viewBox="5.0 -10.0 100.0 135.0" enable-background="new 0 0 100 100" xml:space="preserve">
<g id="Capa_36">
  <path fill="white" d="M81.072,18.467L68.305,4.788l2.223-1.752l-1.737-2.12l-0.276-0.342L68.042,0l-2.349,1.993l-1.164-1.248l-4.717,4.118   l1.008,1.266l-3.684,3.125c-0.337-0.598-0.736-1.17-1.217-1.7c-3.455-3.811-9.356-4.108-13.177-0.65   c-3.825,3.465-4.115,9.363-0.66,13.181c0.421,0.465,0.879,0.875,1.365,1.236L18.79,41.737l0.031,0.038   c-1.73,1.688-0.5,4.523,0.474,7.668c1.008,3.261,2.478,4.741,5.585,4.176c3.113-0.567,3.348-3.25,1.595-5.388   c-1.752-2.143-2.567-3.138-3.098-3.788c-1.09-1.33-2.42-1.647-2.889-1.923L45.37,22.408c3.241,1.368,7.118,0.847,9.901-1.674   c2.332-2.111,3.344-5.132,2.994-8.036l4.781-3.769l7.932,9.975l-14.521,3.94c-1.613,0.315-3.148,1.105-4.337,2.416   c-2.863,3.15-2.702,7.976,0.304,10.931c0.004,0.003,0.006,0.008,0.01,0.01c0.024,0.03,0.069,0.09,0.155,0.21   c0.479,0.688,1.774,2.72,2.429,6.968c0.606,3.985,0.901,6.841,1.045,8.651c0.074,0.907,0.106,1.55,0.123,1.939   c0.015,0.397,0.01,0.433,0.015,0.439l-4.55,23.465L41.32,94.896l7.375,4.761l11.745-17.199c0.338-0.526,0.561-1.063,0.686-1.67   l1.907-9.151L65.594,100l8.034-0.47l-1.685-44.563c0.017-0.185,0.047-0.369,0.047-0.558c0-0.466-0.04-4.72-1.36-13.411   c-0.87-5.838-2.767-9.941-4.448-12.614l12.955-3.515c1.309-0.355,2.35-1.36,2.744-2.663C82.271,20.907,81.966,19.489,81.072,18.467   z"/>
</g>
</svg>
